<svg xmlns="http://www.w3.org/2000/svg" xmlns:xlink="http://www.w3.org/1999/xlink" width="500" zoomAndPan="magnify" viewBox="0 0 375 374.999991" height="500" preserveAspectRatio="xMidYMid meet" version="1.0"><defs><g/><clipPath id="41cf1ad8db"><path d="M 187.5 0 C 83.945312 0 0 83.945312 0 187.5 C 0 291.054688 83.945312 375 187.5 375 C 291.054688 375 375 291.054688 375 187.5 C 375 83.945312 291.054688 0 187.5 0 Z M 187.5 0 " clip-rule="nonzero"/></clipPath></defs><g clip-path="url(#41cf1ad8db)"><rect x="-37.5" width="450" fill="#004aad" y="-37.499999" height="449.999989" fill-opacity="1"/></g><g fill="#ffd100" fill-opacity="1"><g transform="translate(26.191409, 239.980969)"><g><path d="M 137.265625 -115.734375 C 122.796875 -115.734375 108.332031 -109.128906 99.21875 -97.738281 C 92.382812 -108.671875 80.535156 -115.734375 66.296875 -115.734375 C 54.679688 -115.734375 42.71875 -110.953125 33.035156 -100.699219 L 31.441406 -109.128906 C 30.984375 -112.089844 29.160156 -113.34375 26.3125 -113.34375 L 19.933594 -113.34375 C 16.972656 -113.34375 15.265625 -111.636719 15.265625 -108.671875 L 15.265625 -4.671875 C 15.265625 -1.59375 16.972656 0 19.933594 0 L 31.328125 0 C 34.402344 0 35.996094 -1.59375 35.996094 -4.671875 L 35.996094 -70.855469 C 35.996094 -85.207031 48.300781 -96.257812 62.539062 -96.257812 C 77.347656 -96.257812 86.460938 -84.410156 86.460938 -70.171875 L 86.460938 -4.671875 C 86.460938 -1.59375 88.054688 0 91.128906 0 L 102.523438 0 C 105.484375 0 107.191406 -1.59375 107.191406 -4.671875 L 107.191406 -70.855469 C 107.191406 -85.207031 119.609375 -96.257812 133.847656 -96.257812 C 148.085938 -96.257812 157.542969 -84.410156 157.542969 -70.171875 L 157.542969 -4.671875 C 157.542969 -1.59375 159.136719 0 162.214844 0 L 173.605469 0 C 176.566406 0 178.273438 -1.59375 178.273438 -4.671875 L 178.273438 -71.878906 C 178.273438 -96.027344 162.097656 -115.734375 137.265625 -115.734375 Z M 137.265625 -115.734375 "/></g></g></g><g fill="#38aeff" fill-opacity="1"><g transform="translate(218.601553, 239.980969)"><g><path d="M 69.828125 2.390625 C 90.332031 2.390625 109.925781 -8.316406 120.066406 -25.289062 C 121.546875 -27.792969 120.976562 -29.84375 118.242188 -31.441406 L 109.128906 -37.589844 C 106.625 -38.957031 104.574219 -38.046875 102.75 -35.542969 C 96.027344 -24.378906 83.382812 -17.199219 69.828125 -17.199219 C 48.070312 -17.199219 30.644531 -33.035156 30.644531 -56.613281 C 30.644531 -80.308594 48.070312 -96.027344 69.828125 -96.027344 C 83.953125 -96.027344 96.027344 -88.738281 102.976562 -77.574219 C 104.800781 -75.070312 106.851562 -74.386719 109.355469 -75.753906 L 118.242188 -81.449219 C 120.863281 -82.816406 121.660156 -85.207031 120.179688 -87.828125 C 109.699219 -104.800781 90.789062 -115.734375 69.828125 -115.734375 C 36.566406 -115.734375 10.023438 -91.472656 10.023438 -56.613281 C 10.023438 -21.757812 36.566406 2.390625 69.828125 2.390625 Z M 69.828125 2.390625 "/></g></g></g></svg>