<svg xmlns="http://www.w3.org/2000/svg" xmlns:xlink="http://www.w3.org/1999/xlink" width="72" zoomAndPan="magnify" viewBox="0 0 54 30.000001" height="40" preserveAspectRatio="xMidYMid meet" version="1.0"><defs><g/></defs><g fill="#ffd100" fill-opacity="1"><g transform="translate(1.201888, 15.862867)"><g><path d="M 8.351562 -3.984375 C 7.664062 -4.136719 6.859375 -4 6.277344 -3.546875 C 6.089844 -4.160156 5.574219 -4.597656 4.957031 -4.738281 C 4.414062 -4.855469 3.800781 -4.808594 3.078125 -4.371094 L 3.035156 -4.859375 C 3.019531 -4.980469 2.964844 -5.054688 2.851562 -5.082031 L 2.089844 -5.25 C 1.964844 -5.277344 1.875 -5.226562 1.84375 -5.09375 L 0.726562 -0.0507812 C 0.695312 0.0820312 0.753906 0.167969 0.882812 0.195312 L 2.050781 0.453125 C 2.179688 0.484375 2.265625 0.429688 2.296875 0.296875 L 2.949219 -2.648438 C 3.09375 -3.292969 3.519531 -3.660156 4.167969 -3.515625 C 4.824219 -3.371094 4.949219 -2.871094 4.804688 -2.222656 L 4.15625 0.710938 C 4.125 0.84375 4.179688 0.925781 4.3125 0.957031 L 5.472656 1.214844 C 5.605469 1.242188 5.691406 1.191406 5.71875 1.058594 L 6.375 -1.890625 C 6.515625 -2.53125 6.953125 -2.898438 7.585938 -2.757812 C 8.214844 -2.621094 8.359375 -2.113281 8.214844 -1.464844 L 7.566406 1.46875 C 7.535156 1.601562 7.589844 1.683594 7.722656 1.714844 L 8.882812 1.972656 C 9.015625 2 9.101562 1.945312 9.128906 1.816406 L 9.851562 -1.441406 C 10.117188 -2.644531 9.582031 -3.710938 8.351562 -3.984375 Z M 8.351562 -3.984375 "/></g></g></g><g fill="#ffd100" fill-opacity="1"><g transform="translate(11.248049, 17.997477)"><g><path d="M 3.972656 -5.226562 C 2.375 -5.4375 1.050781 -4.472656 0.820312 -2.707031 C 0.585938 -0.90625 1.734375 0.347656 3.300781 0.554688 C 4.070312 0.652344 4.898438 0.488281 5.640625 0.0390625 C 5.777344 -0.0429688 5.8125 -0.148438 5.734375 -0.246094 L 5.234375 -1.078125 C 5.160156 -1.179688 5.082031 -1.195312 4.960938 -1.128906 C 4.488281 -0.851562 3.984375 -0.734375 3.53125 -0.792969 C 2.832031 -0.886719 2.242188 -1.40625 2.320312 -2.265625 L 6.035156 -1.78125 C 6.214844 -1.757812 6.277344 -1.824219 6.304688 -2.007812 C 6.53125 -3.757812 5.582031 -5.015625 3.972656 -5.226562 Z M 3.851562 -3.976562 C 4.308594 -3.914062 4.757812 -3.632812 4.800781 -2.988281 L 2.546875 -3.285156 C 2.8125 -3.898438 3.40625 -4.035156 3.851562 -3.976562 Z M 3.851562 -3.976562 "/></g></g></g><g fill="#ffd100" fill-opacity="1"><g transform="translate(17.878051, 18.856449)"><g><path d="M 3.601562 -5.488281 C 1.992188 -5.585938 0.738281 -4.535156 0.632812 -2.753906 C 0.519531 -0.945312 1.753906 0.226562 3.332031 0.324219 C 4.105469 0.371094 4.917969 0.148438 5.628906 -0.351562 C 5.761719 -0.445312 5.789062 -0.546875 5.703125 -0.644531 L 5.148438 -1.4375 C 5.066406 -1.535156 4.988281 -1.542969 4.871094 -1.46875 C 4.421875 -1.160156 3.921875 -1.007812 3.464844 -1.039062 C 2.765625 -1.078125 2.136719 -1.554688 2.15625 -2.421875 L 5.898438 -2.191406 C 6.078125 -2.183594 6.136719 -2.253906 6.148438 -2.4375 C 6.257812 -4.199219 5.222656 -5.390625 3.601562 -5.488281 Z M 3.566406 -4.234375 C 4.027344 -4.203125 4.496094 -3.953125 4.582031 -3.316406 L 2.316406 -3.453125 C 2.535156 -4.085938 3.117188 -4.261719 3.566406 -4.234375 Z M 3.566406 -4.234375 "/></g></g></g><g fill="#ffd100" fill-opacity="1"><g transform="translate(24.51069, 19.224312)"><g><path d="M 2.933594 0.128906 C 3.210938 0.128906 3.507812 0.109375 3.824219 0.0195312 C 3.953125 -0.015625 4 -0.113281 3.964844 -0.242188 L 3.75 -1.085938 C 3.714844 -1.210938 3.625 -1.257812 3.492188 -1.222656 C 3.363281 -1.1875 3.246094 -1.175781 3.144531 -1.175781 C 2.832031 -1.179688 2.625 -1.328125 2.628906 -1.695312 L 2.632812 -4.308594 L 3.59375 -4.304688 C 3.730469 -4.304688 3.800781 -4.382812 3.800781 -4.511719 L 3.804688 -5.359375 C 3.804688 -5.496094 3.734375 -5.566406 3.597656 -5.566406 L 2.636719 -5.570312 L 2.644531 -7.226562 C 2.644531 -7.359375 2.566406 -7.433594 2.4375 -7.433594 L 1.246094 -7.4375 C 1.109375 -7.4375 1.039062 -7.363281 1.039062 -7.234375 L 1.035156 -5.574219 L 0.578125 -5.574219 C 0.449219 -5.578125 0.371094 -5.507812 0.371094 -5.371094 L 0.367188 -4.519531 C 0.367188 -4.390625 0.445312 -4.316406 0.574219 -4.316406 L 1.03125 -4.3125 L 1.023438 -1.574219 C 1.019531 -0.464844 1.792969 0.125 2.933594 0.128906 Z M 2.933594 0.128906 "/></g></g></g><g fill="#38aeff" fill-opacity="1"><g transform="translate(29.074627, 19.256391)"><g><path d="M 3.507812 -0.0703125 C 4.390625 -0.117188 5.171875 -0.496094 5.667969 -1.070312 C 5.75 -1.164062 5.730469 -1.253906 5.617188 -1.34375 L 4.78125 -2.0625 C 4.667969 -2.148438 4.585938 -2.117188 4.496094 -2.019531 C 4.25 -1.695312 3.875 -1.480469 3.433594 -1.457031 C 2.574219 -1.410156 1.917969 -2.035156 1.871094 -2.894531 C 1.824219 -3.757812 2.414062 -4.441406 3.269531 -4.488281 C 3.71875 -4.511719 4.109375 -4.335938 4.386719 -4.046875 C 4.488281 -3.949219 4.582031 -3.941406 4.671875 -4.03125 L 5.429688 -4.832031 C 5.527344 -4.921875 5.535156 -5.039062 5.441406 -5.128906 C 4.875 -5.640625 4.078125 -5.925781 3.195312 -5.878906 C 1.4375 -5.785156 0.199219 -4.507812 0.292969 -2.808594 C 0.382812 -1.109375 1.753906 0.0273438 3.507812 -0.0703125 Z M 3.507812 -0.0703125 "/></g></g></g><g fill="#38aeff" fill-opacity="1"><g transform="translate(35.462634, 18.907617)"><g><path d="M 3.175781 -0.265625 C 4.703125 -0.453125 5.625 -1.484375 5.4375 -3.035156 L 5.070312 -6.03125 C 5.054688 -6.164062 4.976562 -6.226562 4.839844 -6.210938 L 3.660156 -6.066406 C 3.523438 -6.046875 3.464844 -5.96875 3.480469 -5.835938 L 3.835938 -2.902344 C 3.910156 -2.300781 3.660156 -1.769531 3.003906 -1.6875 C 2.363281 -1.609375 1.980469 -2.011719 1.902344 -2.667969 L 1.542969 -5.597656 C 1.527344 -5.734375 1.449219 -5.796875 1.316406 -5.777344 L 0.132812 -5.636719 C 0 -5.617188 -0.0625 -5.539062 -0.046875 -5.40625 L 0.316406 -2.414062 C 0.507812 -0.863281 1.652344 -0.078125 3.175781 -0.265625 Z M 3.175781 -0.265625 "/></g></g></g><g fill="#38aeff" fill-opacity="1"><g transform="translate(42.001455, 18.0752)"><g><path d="M 2.910156 -0.40625 C 3.179688 -0.453125 3.46875 -0.527344 3.765625 -0.671875 C 3.886719 -0.730469 3.914062 -0.835938 3.855469 -0.953125 L 3.492188 -1.746094 C 3.4375 -1.863281 3.339844 -1.890625 3.210938 -1.832031 C 3.09375 -1.777344 2.976562 -1.746094 2.878906 -1.726562 C 2.570312 -1.671875 2.34375 -1.78125 2.277344 -2.144531 L 1.8125 -4.714844 L 2.757812 -4.886719 C 2.890625 -4.910156 2.945312 -4.996094 2.921875 -5.125 L 2.769531 -5.960938 C 2.746094 -6.09375 2.664062 -6.152344 2.53125 -6.125 L 1.585938 -5.957031 L 1.292969 -7.585938 C 1.269531 -7.714844 1.179688 -7.777344 1.050781 -7.753906 L -0.121094 -7.539062 C -0.253906 -7.515625 -0.308594 -7.429688 -0.285156 -7.300781 L 0.0078125 -5.671875 L -0.441406 -5.589844 C -0.570312 -5.566406 -0.628906 -5.484375 -0.605469 -5.347656 L -0.453125 -4.511719 C -0.433594 -4.386719 -0.34375 -4.324219 -0.214844 -4.347656 L 0.234375 -4.429688 L 0.722656 -1.734375 C 0.921875 -0.640625 1.785156 -0.199219 2.910156 -0.40625 Z M 2.910156 -0.40625 "/></g></g></g><g fill="#38aeff" fill-opacity="1"><g transform="translate(46.502386, 17.284328)"><g><path d="M 1.832031 -6.304688 C 0.261719 -5.925781 -0.625 -4.554688 -0.207031 -2.820312 C 0.21875 -1.054688 1.742188 -0.296875 3.28125 -0.667969 C 4.03125 -0.851562 4.746094 -1.304688 5.277344 -1.988281 C 5.375 -2.117188 5.371094 -2.222656 5.261719 -2.289062 L 4.496094 -2.886719 C 4.394531 -2.953125 4.3125 -2.941406 4.226562 -2.835938 C 3.882812 -2.40625 3.453125 -2.117188 3.007812 -2.007812 C 2.324219 -1.84375 1.585938 -2.117188 1.351562 -2.949219 L 4.992188 -3.828125 C 5.167969 -3.871094 5.203125 -3.957031 5.160156 -4.136719 C 4.746094 -5.851562 3.40625 -6.6875 1.832031 -6.304688 Z M 2.164062 -5.09375 C 2.613281 -5.203125 3.132812 -5.101562 3.40625 -4.515625 L 1.199219 -3.980469 C 1.222656 -4.648438 1.730469 -4.988281 2.164062 -5.09375 Z M 2.164062 -5.09375 "/></g></g></g></svg>