<svg xmlns="http://www.w3.org/2000/svg" xmlns:xlink="http://www.w3.org/1999/xlink" width="72" zoomAndPan="magnify" viewBox="0 0 54 30.000001" height="40" preserveAspectRatio="xMidYMid meet" version="1.0"><defs><g/></defs><g fill="#ffd100" fill-opacity="1"><g transform="translate(0.893648, 18.145163)"><g><path d="M 7.539062 -5.890625 C 6.8125 -5.890625 6.027344 -5.574219 5.542969 -4.988281 C 5.214844 -5.5625 4.597656 -5.890625 3.945312 -5.890625 C 3.367188 -5.890625 2.757812 -5.703125 2.128906 -5.101562 L 1.972656 -5.585938 C 1.933594 -5.703125 1.859375 -5.765625 1.742188 -5.765625 L 0.933594 -5.765625 C 0.800781 -5.765625 0.722656 -5.695312 0.722656 -5.554688 L 0.722656 -0.214844 C 0.722656 -0.0742188 0.800781 0 0.933594 0 L 2.171875 0 C 2.308594 0 2.382812 -0.0742188 2.382812 -0.214844 L 2.382812 -3.335938 C 2.382812 -4.015625 2.734375 -4.484375 3.417969 -4.484375 C 4.113281 -4.484375 4.355469 -4.003906 4.355469 -3.320312 L 4.355469 -0.214844 C 4.355469 -0.0742188 4.425781 0 4.566406 0 L 5.796875 0 C 5.9375 0 6.011719 -0.0742188 6.011719 -0.214844 L 6.011719 -3.335938 C 6.011719 -4.015625 6.371094 -4.484375 7.039062 -4.484375 C 7.703125 -4.484375 7.964844 -4.003906 7.964844 -3.320312 L 7.964844 -0.214844 C 7.964844 -0.0742188 8.039062 0 8.175781 0 L 9.410156 0 C 9.550781 0 9.621094 -0.0742188 9.621094 -0.214844 L 9.621094 -3.664062 C 9.621094 -4.9375 8.84375 -5.890625 7.539062 -5.890625 Z M 7.539062 -5.890625 "/></g></g></g><g fill="#ffd100" fill-opacity="1"><g transform="translate(11.178047, 18.145163)"><g><path d="M 3.371094 -5.890625 C 1.703125 -5.890625 0.476562 -4.726562 0.476562 -2.882812 C 0.476562 -1.007812 1.824219 0.125 3.460938 0.125 C 4.261719 0.125 5.085938 -0.15625 5.789062 -0.71875 C 5.917969 -0.820312 5.9375 -0.929688 5.84375 -1.023438 L 5.222656 -1.808594 C 5.132812 -1.902344 5.050781 -1.90625 4.9375 -1.824219 C 4.488281 -1.476562 3.984375 -1.289062 3.511719 -1.289062 C 2.785156 -1.289062 2.109375 -1.742188 2.074219 -2.632812 L 5.949219 -2.632812 C 6.136719 -2.632812 6.191406 -2.710938 6.191406 -2.902344 C 6.191406 -4.726562 5.050781 -5.890625 3.371094 -5.890625 Z M 3.414062 -4.59375 C 3.890625 -4.59375 4.390625 -4.363281 4.519531 -3.710938 L 2.171875 -3.710938 C 2.359375 -4.375 2.949219 -4.59375 3.414062 -4.59375 Z M 3.414062 -4.59375 "/></g></g></g><g fill="#ffd100" fill-opacity="1"><g transform="translate(17.826548, 18.145163)"><g><path d="M 3.371094 -5.890625 C 1.703125 -5.890625 0.476562 -4.726562 0.476562 -2.882812 C 0.476562 -1.007812 1.824219 0.125 3.460938 0.125 C 4.261719 0.125 5.085938 -0.15625 5.789062 -0.71875 C 5.917969 -0.820312 5.9375 -0.929688 5.84375 -1.023438 L 5.222656 -1.808594 C 5.132812 -1.902344 5.050781 -1.90625 4.9375 -1.824219 C 4.488281 -1.476562 3.984375 -1.289062 3.511719 -1.289062 C 2.785156 -1.289062 2.109375 -1.742188 2.074219 -2.632812 L 5.949219 -2.632812 C 6.136719 -2.632812 6.191406 -2.710938 6.191406 -2.902344 C 6.191406 -4.726562 5.050781 -5.890625 3.371094 -5.890625 Z M 3.414062 -4.59375 C 3.890625 -4.59375 4.390625 -4.363281 4.519531 -3.710938 L 2.171875 -3.710938 C 2.359375 -4.375 2.949219 -4.59375 3.414062 -4.59375 Z M 3.414062 -4.59375 "/></g></g></g><g fill="#ffd100" fill-opacity="1"><g transform="translate(24.475048, 18.145163)"><g><path d="M 3.035156 0.125 C 3.320312 0.125 3.625 0.105469 3.953125 0.0117188 C 4.089844 -0.0273438 4.136719 -0.128906 4.097656 -0.261719 L 3.875 -1.132812 C 3.839844 -1.261719 3.746094 -1.308594 3.605469 -1.273438 C 3.476562 -1.238281 3.351562 -1.226562 3.246094 -1.226562 C 2.925781 -1.226562 2.710938 -1.382812 2.710938 -1.761719 L 2.710938 -4.464844 L 3.703125 -4.464844 C 3.84375 -4.464844 3.917969 -4.539062 3.917969 -4.675781 L 3.917969 -5.554688 C 3.917969 -5.695312 3.84375 -5.765625 3.703125 -5.765625 L 2.710938 -5.765625 L 2.710938 -7.480469 C 2.710938 -7.617188 2.632812 -7.695312 2.5 -7.695312 L 1.269531 -7.695312 C 1.128906 -7.695312 1.054688 -7.617188 1.054688 -7.480469 L 1.054688 -5.765625 L 0.582031 -5.765625 C 0.445312 -5.765625 0.367188 -5.695312 0.367188 -5.554688 L 0.367188 -4.675781 C 0.367188 -4.539062 0.445312 -4.464844 0.582031 -4.464844 L 1.054688 -4.464844 L 1.054688 -1.632812 C 1.054688 -0.484375 1.855469 0.125 3.035156 0.125 Z M 3.035156 0.125 "/></g></g></g><g fill="#38aeff" fill-opacity="1"><g transform="translate(28.984626, 18.145163)"><g><path d="M 3.625 0.125 C 4.539062 0.125 5.367188 -0.222656 5.914062 -0.789062 C 6 -0.882812 5.984375 -0.976562 5.875 -1.074219 L 5.050781 -1.863281 C 4.941406 -1.957031 4.851562 -1.933594 4.753906 -1.835938 C 4.484375 -1.511719 4.082031 -1.316406 3.625 -1.316406 C 2.738281 -1.316406 2.09375 -1.996094 2.09375 -2.882812 C 2.09375 -3.777344 2.738281 -4.453125 3.625 -4.453125 C 4.089844 -4.453125 4.484375 -4.25 4.753906 -3.933594 C 4.851562 -3.828125 4.953125 -3.8125 5.050781 -3.902344 L 5.875 -4.6875 C 5.980469 -4.773438 5.996094 -4.894531 5.902344 -4.992188 C 5.347656 -5.554688 4.539062 -5.890625 3.625 -5.890625 C 1.808594 -5.890625 0.457031 -4.644531 0.457031 -2.882812 C 0.457031 -1.121094 1.808594 0.125 3.625 0.125 Z M 3.625 0.125 "/></g></g></g><g fill="#38aeff" fill-opacity="1"><g transform="translate(35.342254, 18.145163)"><g><path d="M 3.292969 0.125 C 4.882812 0.125 5.960938 -0.820312 5.960938 -2.4375 L 5.960938 -5.554688 C 5.960938 -5.695312 5.886719 -5.765625 5.746094 -5.765625 L 4.515625 -5.765625 C 4.375 -5.765625 4.300781 -5.695312 4.300781 -5.554688 L 4.300781 -2.5 C 4.300781 -1.871094 3.980469 -1.355469 3.292969 -1.355469 C 2.628906 -1.355469 2.285156 -1.820312 2.285156 -2.5 L 2.285156 -5.554688 C 2.285156 -5.695312 2.214844 -5.765625 2.074219 -5.765625 L 0.839844 -5.765625 C 0.703125 -5.765625 0.628906 -5.695312 0.628906 -5.554688 L 0.628906 -2.4375 C 0.628906 -0.820312 1.703125 0.125 3.292969 0.125 Z M 3.292969 0.125 "/></g></g></g><g fill="#38aeff" fill-opacity="1"><g transform="translate(41.938813, 18.145163)"><g><path d="M 3.035156 0.125 C 3.320312 0.125 3.625 0.105469 3.953125 0.0117188 C 4.089844 -0.0273438 4.136719 -0.128906 4.097656 -0.261719 L 3.875 -1.132812 C 3.839844 -1.261719 3.746094 -1.308594 3.605469 -1.273438 C 3.476562 -1.238281 3.351562 -1.226562 3.246094 -1.226562 C 2.925781 -1.226562 2.710938 -1.382812 2.710938 -1.761719 L 2.710938 -4.464844 L 3.703125 -4.464844 C 3.84375 -4.464844 3.917969 -4.539062 3.917969 -4.675781 L 3.917969 -5.554688 C 3.917969 -5.695312 3.84375 -5.765625 3.703125 -5.765625 L 2.710938 -5.765625 L 2.710938 -7.480469 C 2.710938 -7.617188 2.632812 -7.695312 2.5 -7.695312 L 1.269531 -7.695312 C 1.128906 -7.695312 1.054688 -7.617188 1.054688 -7.480469 L 1.054688 -5.765625 L 0.582031 -5.765625 C 0.445312 -5.765625 0.367188 -5.695312 0.367188 -5.554688 L 0.367188 -4.675781 C 0.367188 -4.539062 0.445312 -4.464844 0.582031 -4.464844 L 1.054688 -4.464844 L 1.054688 -1.632812 C 1.054688 -0.484375 1.855469 0.125 3.035156 0.125 Z M 3.035156 0.125 "/></g></g></g><g fill="#38aeff" fill-opacity="1"><g transform="translate(46.442134, 18.145163)"><g><path d="M 3.371094 -5.890625 C 1.703125 -5.890625 0.476562 -4.726562 0.476562 -2.882812 C 0.476562 -1.007812 1.824219 0.125 3.460938 0.125 C 4.261719 0.125 5.085938 -0.15625 5.789062 -0.71875 C 5.917969 -0.820312 5.9375 -0.929688 5.84375 -1.023438 L 5.222656 -1.808594 C 5.132812 -1.902344 5.050781 -1.90625 4.9375 -1.824219 C 4.488281 -1.476562 3.984375 -1.289062 3.511719 -1.289062 C 2.785156 -1.289062 2.109375 -1.742188 2.074219 -2.632812 L 5.949219 -2.632812 C 6.136719 -2.632812 6.191406 -2.710938 6.191406 -2.902344 C 6.191406 -4.726562 5.050781 -5.890625 3.371094 -5.890625 Z M 3.414062 -4.59375 C 3.890625 -4.59375 4.390625 -4.363281 4.519531 -3.710938 L 2.171875 -3.710938 C 2.359375 -4.375 2.949219 -4.59375 3.414062 -4.59375 Z M 3.414062 -4.59375 "/></g></g></g></svg>